<?xml version="1.0" encoding="UTF-8"?>
<svg xmlns="http://www.w3.org/2000/svg" xmlns:xlink="http://www.w3.org/1999/xlink" width="22px" height="22px" viewBox="0 0 22 22" version="1.1">
<g id="surface1">
<path style=" stroke:none;fill-rule:nonzero;fill:rgb(98.039216%,98.039216%,98.039216%);fill-opacity:1;" d="M 19.148438 3.484375 L 19.148438 3.378906 C 19.148438 3.144531 19.054688 2.921875 18.890625 2.757812 C 18.722656 2.589844 18.5 2.496094 18.265625 2.496094 C 17.78125 2.496094 17.382812 2.894531 17.382812 3.378906 L 17.382812 3.484375 L 15.5625 3.484375 L 15.5625 3.378906 C 15.5625 3.144531 15.46875 2.921875 15.304688 2.757812 C 15.136719 2.589844 14.914062 2.496094 14.679688 2.496094 C 14.191406 2.496094 13.796875 2.894531 13.796875 3.378906 L 13.796875 3.484375 L 11.972656 3.484375 L 11.972656 3.378906 C 11.972656 3.144531 11.882812 2.921875 11.714844 2.757812 C 11.546875 2.589844 11.328125 2.496094 11.089844 2.496094 C 10.605469 2.496094 10.210938 2.894531 10.210938 3.378906 L 10.210938 3.484375 L 8.386719 3.484375 L 8.386719 3.378906 C 8.386719 3.144531 8.292969 2.921875 8.128906 2.757812 C 7.960938 2.589844 7.738281 2.496094 7.503906 2.496094 C 7.015625 2.496094 6.621094 2.894531 6.621094 3.378906 L 6.621094 3.484375 L 4.800781 3.484375 L 4.800781 3.378906 C 4.800781 3.144531 4.707031 2.921875 4.539062 2.757812 C 4.375 2.589844 4.152344 2.496094 3.917969 2.496094 C 3.429688 2.496094 3.035156 2.894531 3.035156 3.378906 L 3.035156 3.484375 L 1.261719 3.484375 L 1.261719 3.816406 L 0 18.714844 L 1.261719 18.714844 L 1.261719 19.503906 L 22 19.503906 L 22 3.484375 Z M 18.074219 3.378906 C 18.074219 3.273438 18.160156 3.1875 18.265625 3.1875 C 18.316406 3.1875 18.367188 3.207031 18.402344 3.246094 C 18.4375 3.28125 18.457031 3.328125 18.457031 3.378906 L 18.457031 3.484375 L 18.074219 3.484375 Z M 14.484375 3.378906 C 14.484375 3.273438 14.574219 3.1875 14.679688 3.1875 C 14.746094 3.1875 14.789062 3.21875 14.816406 3.246094 C 14.851562 3.28125 14.871094 3.328125 14.871094 3.378906 L 14.871094 3.484375 L 14.484375 3.484375 Z M 10.898438 3.378906 C 10.898438 3.273438 10.984375 3.1875 11.089844 3.1875 C 11.15625 3.1875 11.203125 3.21875 11.226562 3.246094 C 11.265625 3.28125 11.285156 3.328125 11.285156 3.378906 L 11.285156 3.484375 L 10.898438 3.484375 Z M 7.3125 3.378906 C 7.3125 3.273438 7.398438 3.1875 7.503906 3.1875 C 7.570312 3.1875 7.613281 3.21875 7.640625 3.246094 C 7.675781 3.28125 7.695312 3.328125 7.695312 3.378906 L 7.695312 3.484375 L 7.3125 3.484375 Z M 3.722656 3.378906 C 3.722656 3.273438 3.8125 3.1875 3.917969 3.1875 C 3.984375 3.1875 4.027344 3.21875 4.054688 3.246094 C 4.089844 3.28125 4.109375 3.328125 4.109375 3.378906 L 4.109375 3.484375 L 3.722656 3.484375 Z M 0.75 18.023438 L 1.261719 11.988281 L 1.261719 18.023438 Z M 21.308594 18.8125 L 1.953125 18.8125 L 1.953125 4.175781 L 4.109375 4.175781 L 4.109375 4.621094 C 3.738281 4.761719 3.472656 5.121094 3.472656 5.539062 C 3.472656 6.082031 3.914062 6.519531 4.453125 6.519531 C 4.996094 6.519531 5.433594 6.082031 5.433594 5.539062 C 5.433594 5.121094 5.171875 4.761719 4.800781 4.621094 L 4.800781 4.175781 L 7.695312 4.175781 L 7.695312 4.621094 C 7.324219 4.761719 7.058594 5.121094 7.058594 5.539062 C 7.058594 6.082031 7.5 6.519531 8.042969 6.519531 C 8.582031 6.519531 9.023438 6.082031 9.023438 5.539062 C 9.023438 5.121094 8.757812 4.761719 8.386719 4.621094 L 8.386719 4.175781 L 11.285156 4.175781 L 11.285156 4.621094 C 10.914062 4.761719 10.648438 5.121094 10.648438 5.539062 C 10.648438 6.082031 11.085938 6.523438 11.628906 6.523438 C 12.167969 6.523438 12.609375 6.082031 12.609375 5.539062 C 12.609375 5.121094 12.34375 4.761719 11.972656 4.621094 L 11.972656 4.175781 L 14.871094 4.175781 L 14.871094 4.621094 C 14.5 4.761719 14.234375 5.121094 14.234375 5.539062 C 14.234375 6.082031 14.675781 6.523438 15.214844 6.523438 C 15.757812 6.523438 16.195312 6.082031 16.195312 5.539062 C 16.195312 5.121094 15.933594 4.761719 15.5625 4.621094 L 15.5625 4.175781 L 18.457031 4.175781 L 18.457031 4.621094 C 18.085938 4.761719 17.820312 5.121094 17.820312 5.539062 C 17.820312 6.082031 18.261719 6.523438 18.804688 6.523438 C 19.34375 6.523438 19.785156 6.082031 19.785156 5.539062 C 19.785156 5.121094 19.519531 4.761719 19.148438 4.621094 L 19.148438 4.175781 L 21.308594 4.175781 Z M 4.746094 5.539062 C 4.746094 5.699219 4.613281 5.832031 4.453125 5.832031 C 4.292969 5.832031 4.164062 5.699219 4.164062 5.539062 C 4.164062 5.378906 4.292969 5.25 4.453125 5.25 C 4.613281 5.25 4.746094 5.378906 4.746094 5.539062 Z M 8.332031 5.539062 C 8.332031 5.699219 8.203125 5.832031 8.042969 5.832031 C 7.878906 5.832031 7.75 5.699219 7.75 5.539062 C 7.75 5.378906 7.878906 5.25 8.042969 5.25 C 8.203125 5.25 8.332031 5.378906 8.332031 5.539062 Z M 11.921875 5.539062 C 11.921875 5.699219 11.789062 5.832031 11.628906 5.832031 C 11.46875 5.832031 11.335938 5.699219 11.335938 5.539062 C 11.335938 5.378906 11.46875 5.25 11.628906 5.25 C 11.789062 5.25 11.921875 5.378906 11.921875 5.539062 Z M 15.507812 5.539062 C 15.507812 5.699219 15.375 5.832031 15.214844 5.832031 C 15.054688 5.832031 14.925781 5.699219 14.925781 5.539062 C 14.925781 5.378906 15.054688 5.25 15.214844 5.25 C 15.375 5.25 15.507812 5.378906 15.507812 5.539062 Z M 19.09375 5.539062 C 19.09375 5.699219 18.964844 5.832031 18.804688 5.832031 C 18.644531 5.832031 18.511719 5.699219 18.511719 5.539062 C 18.511719 5.378906 18.644531 5.25 18.804688 5.25 C 18.964844 5.25 19.09375 5.378906 19.09375 5.539062 Z M 19.09375 5.539062 "/>
<path style=" stroke:none;fill-rule:nonzero;fill:rgb(98.039216%,98.039216%,98.039216%);fill-opacity:1;" d="M 3.261719 17.484375 L 20 17.484375 L 20 7.917969 L 3.261719 7.917969 Z M 3.953125 8.605469 L 19.308594 8.605469 L 19.308594 16.792969 L 3.953125 16.792969 Z M 3.953125 8.605469 "/>
<path style=" stroke:none;fill-rule:nonzero;fill:rgb(98.039216%,98.039216%,98.039216%);fill-opacity:1;" d="M 4.585938 9.449219 L 5.671875 9.449219 L 5.671875 10.53125 L 4.585938 10.53125 Z M 4.585938 9.449219 "/>
<path style=" stroke:none;fill-rule:nonzero;fill:rgb(98.039216%,98.039216%,98.039216%);fill-opacity:1;" d="M 6.617188 9.449219 L 7.703125 9.449219 L 7.703125 10.53125 L 6.617188 10.53125 Z M 6.617188 9.449219 "/>
<path style=" stroke:none;fill-rule:nonzero;fill:rgb(98.039216%,98.039216%,98.039216%);fill-opacity:1;" d="M 8.652344 9.449219 L 9.734375 9.449219 L 9.734375 10.53125 L 8.652344 10.53125 Z M 8.652344 9.449219 "/>
<path style=" stroke:none;fill-rule:nonzero;fill:rgb(98.039216%,98.039216%,98.039216%);fill-opacity:1;" d="M 10.683594 9.449219 L 11.765625 9.449219 L 11.765625 10.53125 L 10.683594 10.53125 Z M 10.683594 9.449219 "/>
<path style=" stroke:none;fill-rule:nonzero;fill:rgb(98.039216%,98.039216%,98.039216%);fill-opacity:1;" d="M 12.714844 9.449219 L 13.796875 9.449219 L 13.796875 10.53125 L 12.714844 10.53125 Z M 12.714844 9.449219 "/>
<path style=" stroke:none;fill-rule:nonzero;fill:rgb(98.039216%,98.039216%,98.039216%);fill-opacity:1;" d="M 17.59375 9.449219 L 18.675781 9.449219 L 18.675781 10.53125 L 17.59375 10.53125 Z M 17.59375 9.449219 "/>
<path style=" stroke:none;fill-rule:nonzero;fill:rgb(98.039216%,98.039216%,98.039216%);fill-opacity:1;" d="M 15.671875 9.449219 L 16.753906 9.449219 L 16.753906 10.53125 L 15.671875 10.53125 Z M 15.671875 9.449219 "/>
<path style=" stroke:none;fill-rule:nonzero;fill:rgb(98.039216%,98.039216%,98.039216%);fill-opacity:1;" d="M 4.585938 11.253906 L 5.671875 11.253906 L 5.671875 12.339844 L 4.585938 12.339844 Z M 4.585938 11.253906 "/>
<path style=" stroke:none;fill-rule:nonzero;fill:rgb(98.039216%,98.039216%,98.039216%);fill-opacity:1;" d="M 6.617188 11.253906 L 7.703125 11.253906 L 7.703125 12.339844 L 6.617188 12.339844 Z M 6.617188 11.253906 "/>
<path style=" stroke:none;fill-rule:nonzero;fill:rgb(98.039216%,98.039216%,98.039216%);fill-opacity:1;" d="M 8.652344 11.253906 L 9.734375 11.253906 L 9.734375 12.339844 L 8.652344 12.339844 Z M 8.652344 11.253906 "/>
<path style=" stroke:none;fill-rule:nonzero;fill:rgb(98.039216%,98.039216%,98.039216%);fill-opacity:1;" d="M 10.683594 11.253906 L 11.765625 11.253906 L 11.765625 12.339844 L 10.683594 12.339844 Z M 10.683594 11.253906 "/>
<path style=" stroke:none;fill-rule:nonzero;fill:rgb(98.039216%,98.039216%,98.039216%);fill-opacity:1;" d="M 12.714844 11.253906 L 13.796875 11.253906 L 13.796875 12.339844 L 12.714844 12.339844 Z M 12.714844 11.253906 "/>
<path style=" stroke:none;fill-rule:nonzero;fill:rgb(98.039216%,98.039216%,98.039216%);fill-opacity:1;" d="M 17.59375 11.253906 L 18.675781 11.253906 L 18.675781 12.339844 L 17.59375 12.339844 Z M 17.59375 11.253906 "/>
<path style=" stroke:none;fill-rule:nonzero;fill:rgb(98.039216%,98.039216%,98.039216%);fill-opacity:1;" d="M 15.671875 11.253906 L 16.753906 11.253906 L 16.753906 12.339844 L 15.671875 12.339844 Z M 15.671875 11.253906 "/>
<path style=" stroke:none;fill-rule:nonzero;fill:rgb(98.039216%,98.039216%,98.039216%);fill-opacity:1;" d="M 4.585938 13.0625 L 5.671875 13.0625 L 5.671875 14.144531 L 4.585938 14.144531 Z M 4.585938 13.0625 "/>
<path style=" stroke:none;fill-rule:nonzero;fill:rgb(98.039216%,98.039216%,98.039216%);fill-opacity:1;" d="M 6.617188 13.0625 L 7.703125 13.0625 L 7.703125 14.144531 L 6.617188 14.144531 Z M 6.617188 13.0625 "/>
<path style=" stroke:none;fill-rule:nonzero;fill:rgb(98.039216%,98.039216%,98.039216%);fill-opacity:1;" d="M 8.652344 13.0625 L 9.734375 13.0625 L 9.734375 14.144531 L 8.652344 14.144531 Z M 8.652344 13.0625 "/>
<path style=" stroke:none;fill-rule:nonzero;fill:rgb(98.039216%,98.039216%,98.039216%);fill-opacity:1;" d="M 10.683594 13.0625 L 11.765625 13.0625 L 11.765625 14.144531 L 10.683594 14.144531 Z M 10.683594 13.0625 "/>
<path style=" stroke:none;fill-rule:nonzero;fill:rgb(98.039216%,98.039216%,98.039216%);fill-opacity:1;" d="M 12.714844 13.0625 L 13.796875 13.0625 L 13.796875 14.144531 L 12.714844 14.144531 Z M 12.714844 13.0625 "/>
<path style=" stroke:none;fill-rule:nonzero;fill:rgb(98.039216%,98.039216%,98.039216%);fill-opacity:1;" d="M 17.59375 13.0625 L 18.675781 13.0625 L 18.675781 14.144531 L 17.59375 14.144531 Z M 17.59375 13.0625 "/>
<path style=" stroke:none;fill-rule:nonzero;fill:rgb(98.039216%,98.039216%,98.039216%);fill-opacity:1;" d="M 15.671875 13.0625 L 16.753906 13.0625 L 16.753906 14.144531 L 15.671875 14.144531 Z M 15.671875 13.0625 "/>
<path style=" stroke:none;fill-rule:nonzero;fill:rgb(98.039216%,98.039216%,98.039216%);fill-opacity:1;" d="M 4.585938 14.867188 L 5.671875 14.867188 L 5.671875 15.953125 L 4.585938 15.953125 Z M 4.585938 14.867188 "/>
<path style=" stroke:none;fill-rule:nonzero;fill:rgb(98.039216%,98.039216%,98.039216%);fill-opacity:1;" d="M 6.617188 14.867188 L 7.703125 14.867188 L 7.703125 15.953125 L 6.617188 15.953125 Z M 6.617188 14.867188 "/>
<path style=" stroke:none;fill-rule:nonzero;fill:rgb(98.039216%,98.039216%,98.039216%);fill-opacity:1;" d="M 8.652344 14.867188 L 9.734375 14.867188 L 9.734375 15.953125 L 8.652344 15.953125 Z M 8.652344 14.867188 "/>
<path style=" stroke:none;fill-rule:nonzero;fill:rgb(98.039216%,98.039216%,98.039216%);fill-opacity:1;" d="M 10.683594 14.867188 L 11.765625 14.867188 L 11.765625 15.953125 L 10.683594 15.953125 Z M 10.683594 14.867188 "/>
<path style=" stroke:none;fill-rule:nonzero;fill:rgb(98.039216%,98.039216%,98.039216%);fill-opacity:1;" d="M 12.714844 14.867188 L 13.796875 14.867188 L 13.796875 15.953125 L 12.714844 15.953125 Z M 12.714844 14.867188 "/>
<path style=" stroke:none;fill-rule:nonzero;fill:rgb(98.039216%,98.039216%,98.039216%);fill-opacity:1;" d="M 17.59375 14.867188 L 18.675781 14.867188 L 18.675781 15.953125 L 17.59375 15.953125 Z M 17.59375 14.867188 "/>
<path style=" stroke:none;fill-rule:nonzero;fill:rgb(98.039216%,98.039216%,98.039216%);fill-opacity:1;" d="M 15.671875 14.867188 L 16.753906 14.867188 L 16.753906 15.953125 L 15.671875 15.953125 Z M 15.671875 14.867188 "/>
</g>
</svg>
