<?xml version="1.0" encoding="UTF-8"?>
<svg xmlns="http://www.w3.org/2000/svg" xmlns:xlink="http://www.w3.org/1999/xlink" width="22px" height="22px" viewBox="0 0 22 21" version="1.1">
<g id="surface1">
<path style=" stroke:none;fill-rule:nonzero;fill:rgb(100%,100%,100%);fill-opacity:1;" d="M 21.753906 7.710938 C 21.492188 7.355469 21.050781 7.152344 20.539062 7.152344 L 18.601562 7.152344 L 18.601562 5.140625 C 18.601562 4.363281 17.941406 3.734375 17.125 3.734375 L 10.328125 3.734375 C 10.039062 3.734375 9.589844 3.515625 9.417969 3.292969 L 8.910156 2.628906 C 8.511719 2.109375 7.707031 1.71875 7.035156 1.71875 L 4.679688 1.71875 C 3.9375 1.71875 3.195312 2.21875 2.945312 2.886719 L 2.785156 3.324219 C 2.707031 3.53125 2.410156 3.734375 2.179688 3.734375 L 1.472656 3.734375 C 0.660156 3.734375 0 4.363281 0 5.140625 L 0 17.84375 C 0 17.910156 0.0117188 17.976562 0.0351562 18.035156 C 0.046875 18.289062 0.128906 18.523438 0.277344 18.726562 C 0.542969 19.078125 0.984375 19.28125 1.492188 19.28125 L 16.507812 19.28125 C 17.417969 19.28125 18.363281 18.640625 18.664062 17.824219 L 21.902344 8.988281 C 22.070312 8.527344 22.019531 8.0625 21.753906 7.710938 Z M 1.472656 4.875 L 2.179688 4.875 C 2.921875 4.875 3.664062 4.371094 3.910156 3.703125 L 4.074219 3.265625 C 4.148438 3.0625 4.449219 2.859375 4.679688 2.859375 L 7.035156 2.859375 C 7.324219 2.859375 7.773438 3.078125 7.945312 3.300781 L 8.453125 3.964844 C 8.851562 4.484375 9.65625 4.875 10.328125 4.875 L 17.125 4.875 C 17.277344 4.875 17.40625 4.996094 17.40625 5.140625 L 17.40625 7.152344 L 5.523438 7.152344 C 4.617188 7.152344 3.671875 7.792969 3.371094 8.609375 L 1.195312 14.542969 L 1.195312 5.140625 C 1.195312 4.996094 1.324219 4.875 1.472656 4.875 Z M 20.777344 8.609375 L 17.535156 17.445312 C 17.402344 17.808594 16.914062 18.140625 16.507812 18.140625 L 1.492188 18.140625 C 1.378906 18.140625 1.289062 18.113281 1.253906 18.066406 C 1.21875 18.019531 1.21875 17.925781 1.257812 17.824219 L 4.5 8.988281 C 4.632812 8.625 5.121094 8.292969 5.523438 8.292969 L 20.539062 8.292969 C 20.65625 8.292969 20.746094 8.320312 20.78125 8.371094 C 20.816406 8.417969 20.8125 8.507812 20.777344 8.609375 Z M 20.777344 8.609375 "/>
</g>
</svg>
